<?xml version="1.0" encoding="UTF-8"?>
<!-- Generator: Adobe Illustrator 23.1.1, SVG Export Plug-In . SVG Version: 6.00 Build 0)  -->
<svg version="1.1" id="Capa_1" xmlns="http://www.w3.org/2000/svg" xmlns:xlink="http://www.w3.org/1999/xlink" x="0px" y="0px" viewBox="0 0 100 70" style="enable-background:new 0 0 100 70;" xml:space="preserve">
<style type="text/css">
	.st0{fill:#6F7177;}
</style>
<g>
	<path id="S" class="st0" d="M9.7,37.8c0.1,0.3,0.1,0.7,0,1c-0.1,0.6-0.7,1-1.3,0.9c-0.6,0.1-1.2-0.4-1.3-1c0-0.1,0-0.1,0-0.2v-1.3   H3.4v1c0,3,2.3,3.9,4.9,3.9c2.4,0,4.4-0.8,4.7-3.1c0.1-0.7,0.1-1.4,0-2.2c-0.6-2.8-5.6-3.6-6.1-5.2V31c0.1-0.6,0.6-1,1.2-0.9   c0.6-0.1,1.2,0.3,1.2,1c0,0.1,0,0.1,0,0.2v0.8h3.4v-0.9c0-2.9-2.6-3.3-4.5-3.3c-2.3,0-4.4,0.8-4.7,3c-0.1,0.6-0.1,1.2,0,1.8   C4.3,35.3,8.9,36.1,9.7,37.8"/>
	<path id="Trazado_7686" class="st0" d="M17.7,28.3l-2.4,13.3H19l1.8-12.1h0.1l1.8,12.1h3.6l-2.6-13.3H17.7z M37.8,28.3l-1.6,10.2   h-0.1l-1.6-10.2H29l-0.3,13.3H32l0.1-11.9h0.1l2.2,11.9h3.4L40,29.7h0.1l0.1,11.9h3.3L43,28.3H37.8z"/>
	<g id="Grupo_10378" transform="translate(56.022 0.012)">
		<path id="S_1_" class="st0" d="M-3.2,37.8c0.1,0.3,0.1,0.7,0,1c-0.1,0.6-0.7,1-1.3,0.9c-0.6,0.1-1.2-0.4-1.3-1c0-0.1,0-0.1,0-0.2    v-1.3h-3.6v1c0,3,2.3,3.9,4.9,3.9c2.4,0,4.4-0.8,4.7-3.1c0.1-0.7,0.1-1.4,0-2.2c-0.5-2.8-5.6-3.6-6-5.2c-0.1-0.2-0.1-0.5,0-0.7    c0.1-0.6,0.6-1,1.2-0.9c0.6-0.1,1.2,0.3,1.2,1c0,0.1,0,0.1,0,0.2V32h3.3v-0.9c0-2.9-2.6-3.3-4.5-3.3c-2.3,0-4.4,0.8-4.7,3    c-0.1,0.6-0.1,1.2,0,1.8C-8.7,35.3-3.9,36.1-3.2,37.8"/>
	</g>
	<path id="Trazado_7687" class="st0" d="M64.1,39.6c0.6,0,1.1-0.4,1.3-1V28.3h3.3v10.5C68.4,41.2,66.5,42,64,42   c-2.4,0-4.4-0.8-4.6-3.2V28.3h3.3v10.4C62.9,39.3,63.5,39.7,64.1,39.6 M80.4,28.3l0.2,10.5h-0.1l-3.1-10.5h-5v13.2h3.2l-0.2-10.9   h0.2l3.2,10.9h4.7V28.3H80.4z M91.9,39.5c0.6,0.1,1.2-0.4,1.3-1v-2.4h-1.3v-1.9h4.7v3.5c0,0.3,0,0.6-0.1,0.9   c-0.2,2.4-2.3,3.2-4.7,3.2s-4.4-0.9-4.7-3.2c0-0.4-0.1-0.6-0.1-0.9V32c0-0.3,0-0.6,0.1-0.9c0.3-2.5,2.3-3.2,4.7-3.2   s4.4,0.8,4.7,3.2v1.3h-3.4v-1.3c-0.2-0.7-1-1.2-1.8-0.9c-0.4,0.1-0.8,0.5-0.9,0.9c0,0.2-0.1,0.4-0.1,0.6v6.6   C90.5,39.1,91.2,39.5,91.9,39.5"/>
</g>
</svg>