<svg xmlns="http://www.w3.org/2000/svg" width="32.777" height="32.777" viewBox="0 0 32.777 32.777">
  <g id="logo-xiaomi" transform="translate(-0.001 0.001)">
    <path id="Sustracción_1" data-name="Sustracción 1" d="M16.389,32.777a35.879,35.879,0,0,1-7.372-.542,12.785,12.785,0,0,1-3.043-1.024,9.628,9.628,0,0,1-4.406-4.4A12.751,12.751,0,0,1,.543,23.771,35.762,35.762,0,0,1,0,16.405,35.764,35.764,0,0,1,.542,9.042,12.77,12.77,0,0,1,1.567,6,9.579,9.579,0,0,1,3.4,3.437,9.677,9.677,0,0,1,5.973,1.6,12.875,12.875,0,0,1,9.018.561,35.952,35.952,0,0,1,16.389,0C18,0,19.2.032,20.273.1a23.762,23.762,0,0,1,3.479.456,12.845,12.845,0,0,1,3.039,1.034,9.724,9.724,0,0,1,4.408,4.4A12.73,12.73,0,0,1,32.23,9.032a35.565,35.565,0,0,1,.547,7.373,35.749,35.749,0,0,1-.543,7.369,12.727,12.727,0,0,1-1.026,3.038,9.631,9.631,0,0,1-4.4,4.4,12.786,12.786,0,0,1-3.043,1.024A35.879,35.879,0,0,1,16.389,32.777Zm6.877-22.662a.2.2,0,0,0-.142.057.206.206,0,0,0-.061.144V22.463a.2.2,0,0,0,.2.2h2.659a.2.2,0,0,0,.2-.2V10.317a.2.2,0,0,0-.2-.2H23.265Zm-13.5,2.606h4.827a3.564,3.564,0,0,1,2.35.628,4.214,4.214,0,0,1,.633,2.8v6.307l0,.007a.205.205,0,0,0,.207.2h2.658a.207.207,0,0,0,.205-.2V16.389a18.2,18.2,0,0,0-.176-2.936,3.971,3.971,0,0,0-.957-2.209,3.959,3.959,0,0,0-2.208-.954,18.423,18.423,0,0,0-2.937-.173H6.695a.2.2,0,0,0-.2.2V22.463a.205.205,0,0,0,.2.2H9.356a.206.206,0,0,0,.207-.2V12.93a.2.2,0,0,1,.2-.209Zm2.411,2.23a.206.206,0,0,0-.205.2v7.3a.207.207,0,0,0,.205.2h2.8a.205.205,0,0,0,.2-.2v-7.3a.207.207,0,0,0-.205-.2h-2.8Z" transform="translate(0.001 -0.001)" fill="gray"/>
  </g>
</svg>
